<?xml version="1.0" encoding="UTF-8"?><svg id="_レイヤー_2" xmlns="http://www.w3.org/2000/svg" viewBox="0 0 5.7852981 5.7852981"><defs><style>.cls-1{fill:#b7b7b7;}.cls-2{fill:#3e3a39;}</style></defs><g id="_画像"><circle class="cls-1" cx="2.8926491" cy="2.8926491" r="2.8926491"/><path class="cls-2" d="M3.311954,2.1610722h-.838562c-.1722412,0-.3123169,.1400146-.3123169,.3122559v.838623c0,.1722412,.1400757,.3122559,.3123169,.3122559h.838562c.1721802,0,.3122559-.1400146,.3122559-.3122559v-.838623c0-.1722412-.1400757-.3122559-.3122559-.3122559Zm-.4193115,1.1448975c-.2279663,0-.4133911-.1853027-.4133911-.4133301s.1854248-.4133301,.4133911-.4133301,.4133911,.1853027,.4133911,.4133301-.1854248,.4133301-.4133911,.4133301Zm.4537354-.7657471c-.0582275,0-.1054688-.0472412-.1054688-.1054688s.0472412-.1054688,.1054688-.1054688,.1054688,.0472412,.1054688,.1054688-.0472412,.1054688-.1054688,.1054688Z"/><circle class="cls-2" cx="2.8926424" cy="2.8926396" r=".2795715"/><path class="cls-2" d="M3.4182162,1.8079228h-1.0511475c-.3083496,0-.5591431,.2507324-.5591431,.559082v1.0512695c0,.3083496,.2507935,.559082,.5591431,.559082h1.0511475c.3083496,0,.5592041-.2507324,.5592041-.559082v-1.0512695c0-.3083496-.2508545-.559082-.5592041-.559082Zm.3397827,1.5040283c0,.2459717-.2000732,.4460449-.4460449,.4460449h-.838562c-.2459717,0-.446106-.2000732-.446106-.4460449v-.838623c0-.2459717,.2001343-.4460449,.446106-.4460449h.838562c.2459717,0,.4460449,.2000732,.4460449,.4460449v.838623Z"/></g></svg>